<svg aria-roledescription="er" role="graphics-document document" viewBox="0 0 355.5626220703125 328.3671875" style="max-width: 355.563px; background-color: white;" xmlns:xlink="http://www.w3.org/1999/xlink" xmlns="http://www.w3.org/2000/svg" width="100%" id="my-svg"><style>#my-svg{font-family:"trebuchet ms",verdana,arial,sans-serif;font-size:16px;fill:#000000;}#my-svg .error-icon{fill:#552222;}#my-svg .error-text{fill:#552222;stroke:#552222;}#my-svg .edge-thickness-normal{stroke-width:2px;}#my-svg .edge-thickness-thick{stroke-width:3.5px;}#my-svg .edge-pattern-solid{stroke-dasharray:0;}#my-svg .edge-pattern-dashed{stroke-dasharray:3;}#my-svg .edge-pattern-dotted{stroke-dasharray:2;}#my-svg .marker{fill:#000000;stroke:#000000;}#my-svg .marker.cross{stroke:#000000;}#my-svg svg{font-family:"trebuchet ms",verdana,arial,sans-serif;font-size:16px;}#my-svg .entityBox{fill:#cde498;stroke:#13540c;}#my-svg .attributeBoxOdd{fill:#ffffff;stroke:#13540c;}#my-svg .attributeBoxEven{fill:#f2f2f2;stroke:#13540c;}#my-svg .relationshipLabelBox{fill:hsl(78.1578947368, 58.4615384615%, 84.5098039216%);opacity:0.7;background-color:hsl(78.1578947368, 58.4615384615%, 84.5098039216%);}#my-svg .relationshipLabelBox rect{opacity:0.5;}#my-svg .relationshipLine{stroke:#000000;}#my-svg .entityTitleText{text-anchor:middle;font-size:18px;fill:#000000;}#my-svg #MD_PARENT_START{fill:#f5f5f5!important;stroke:#000000!important;stroke-width:1;}#my-svg #MD_PARENT_END{fill:#f5f5f5!important;stroke:#000000!important;stroke-width:1;}#my-svg :root{--mermaid-font-family:"trebuchet ms",verdana,arial,sans-serif;}</style><g/><defs><marker orient="auto" markerHeight="240" markerWidth="190" refY="7" refX="0" id="MD_PARENT_START"><path d="M 18,7 L9,13 L1,7 L9,1 Z"/></marker></defs><defs><marker orient="auto" markerHeight="28" markerWidth="20" refY="7" refX="19" id="MD_PARENT_END"><path d="M 18,7 L9,13 L1,7 L9,1 Z"/></marker></defs><defs><marker orient="auto" markerHeight="18" markerWidth="18" refY="9" refX="0" id="ONLY_ONE_START"><path d="M9,0 L9,18 M15,0 L15,18" fill="none" stroke="gray"/></marker></defs><defs><marker orient="auto" markerHeight="18" markerWidth="18" refY="9" refX="18" id="ONLY_ONE_END"><path d="M3,0 L3,18 M9,0 L9,18" fill="none" stroke="gray"/></marker></defs><defs><marker orient="auto" markerHeight="18" markerWidth="30" refY="9" refX="0" id="ZERO_OR_ONE_START"><circle r="6" cy="9" cx="21" fill="white" stroke="gray"/><path d="M9,0 L9,18" fill="none" stroke="gray"/></marker></defs><defs><marker orient="auto" markerHeight="18" markerWidth="30" refY="9" refX="30" id="ZERO_OR_ONE_END"><circle r="6" cy="9" cx="9" fill="white" stroke="gray"/><path d="M21,0 L21,18" fill="none" stroke="gray"/></marker></defs><defs><marker orient="auto" markerHeight="36" markerWidth="45" refY="18" refX="18" id="ONE_OR_MORE_START"><path d="M0,18 Q 18,0 36,18 Q 18,36 0,18 M42,9 L42,27" fill="none" stroke="gray"/></marker></defs><defs><marker orient="auto" markerHeight="36" markerWidth="45" refY="18" refX="27" id="ONE_OR_MORE_END"><path d="M3,9 L3,27 M9,18 Q27,0 45,18 Q27,36 9,18" fill="none" stroke="gray"/></marker></defs><defs><marker orient="auto" markerHeight="36" markerWidth="57" refY="18" refX="18" id="ZERO_OR_MORE_START"><circle r="6" cy="18" cx="48" fill="white" stroke="gray"/><path d="M0,18 Q18,0 36,18 Q18,36 0,18" fill="none" stroke="gray"/></marker></defs><defs><marker orient="auto" markerHeight="36" markerWidth="57" refY="18" refX="39" id="ZERO_OR_MORE_END"><circle r="6" cy="18" cx="9" fill="white" stroke="gray"/><path d="M21,18 Q39,0 57,18 Q39,36 21,18" fill="none" stroke="gray"/></marker></defs><path style="stroke: gray; fill: none;" marker-start="url(#ZERO_OR_MORE_START)" marker-end="url(#ZERO_OR_MORE_END)" d="M106.6484375,123.80897506713868L92.20703125,134.22004432678224C77.765625,144.63111358642578,48.8828125,165.4532521057129,39.28378310041217,184.1976546986898C29.68475370082434,202.94205729166666,39.36950740164868,219.60872395833334,44.21188425206085,227.94205729166666L49.05426110247302,236.275390625" class="er relationshipLine"/><path style="stroke: gray; fill: none;" marker-start="url(#ZERO_OR_ONE_START)" marker-end="url(#ONLY_ONE_END)" d="M196.88132715631292,136.275390625L200.73443929692743,144.60872395833334C204.58755143754195,152.94205729166666,212.29377571877095,169.60872395833334,220.98926470979765,186.275390625C229.68475370082433,202.94205729166666,239.36950740164866,219.60872395833334,244.21188425206083,227.94205729166666L249.05426110247302,236.275390625" class="er relationshipLine"/><path style="stroke: gray; fill: none;" marker-start="url(#ZERO_OR_MORE_START)" marker-end="url(#ZERO_OR_MORE_END)" d="M90.94573889752698,236.275390625L95.78811574793916,227.94205729166666C100.63049259835132,219.60872395833334,110.31524629917567,202.94205729166666,119.01073529020236,186.275390625C127.70622428122903,169.60872395833334,135.41244856245805,152.94205729166666,139.26556070307257,144.60872395833334L143.11867284368708,136.275390625" class="er relationshipLine"/><path style="stroke: gray; fill: none;" marker-start="url(#ZERO_OR_MORE_START)" marker-end="url(#ZERO_OR_MORE_END)" d="M290.945738897527,236.275390625L295.7881157479392,227.94205729166666C300.63049259835134,219.60872395833334,310.31524629917567,202.94205729166666,300.71621689958783,184.19765469868977C291.1171875,165.4532521057129,262.234375,144.63111358642578,247.79296875,134.22004432678224L233.3515625,123.80897506713868" class="er relationshipLine"/><g transform="translate(106.6484375,20 )" id="entity-workexperiences-2bf83977-1d04-5b67-9a29-4848dcd2b359"><rect height="116.275390625" width="126.703125" y="0" x="0" class="er entityBox"/><text style="dominant-baseline: middle; text-anchor: middle; font-size: 12px;" transform="translate(63.3515625,12)" y="0" x="0" id="text-entity-workexperiences-2bf83977-1d04-5b67-9a29-4848dcd2b359" class="er entityLabel">work_experiences</text><rect height="26" width="38.854166666666664" y="24" x="0" class="er attributeBoxOdd"/><text style="dominant-baseline: middle; font-size: 10.2px;" transform="translate(5,37)" y="0" x="0" id="text-entity-workexperiences-2bf83977-1d04-5b67-9a29-4848dcd2b359-attr-1-type" class="er entityLabel">String</text><rect height="26" width="60.526041666666664" y="24" x="38.854166666666664" class="er attributeBoxOdd"/><text style="dominant-baseline: middle; font-size: 10.2px;" transform="translate(43.854166666666664,37)" y="0" x="0" id="text-entity-workexperiences-2bf83977-1d04-5b67-9a29-4848dcd2b359-attr-1-name" class="er entityLabel">id</text><rect height="26" width="27.322916666666668" y="24" x="99.38020833333333" class="er attributeBoxOdd"/><text style="dominant-baseline: middle; font-size: 10.2px;" transform="translate(104.38020833333333,37)" y="0" x="0" id="text-entity-workexperiences-2bf83977-1d04-5b67-9a29-4848dcd2b359-attr-1-comment" class="er entityLabel">🗝️</text><rect height="22.091796875" width="38.854166666666664" y="50" x="0" class="er attributeBoxEven"/><text style="dominant-baseline: middle; font-size: 10.2px;" transform="translate(5,61.0458984375)" y="0" x="0" id="text-entity-workexperiences-2bf83977-1d04-5b67-9a29-4848dcd2b359-attr-2-type" class="er entityLabel">String</text><rect height="22.091796875" width="60.526041666666664" y="50" x="38.854166666666664" class="er attributeBoxEven"/><text style="dominant-baseline: middle; font-size: 10.2px;" transform="translate(43.854166666666664,61.0458984375)" y="0" x="0" id="text-entity-workexperiences-2bf83977-1d04-5b67-9a29-4848dcd2b359-attr-2-name" class="er entityLabel">header</text><rect height="22.091796875" width="27.322916666666668" y="50" x="99.38020833333333" class="er attributeBoxEven"/><text style="dominant-baseline: middle; font-size: 10.2px;" transform="translate(104.38020833333333,61.0458984375)" y="0" x="0" id="text-entity-workexperiences-2bf83977-1d04-5b67-9a29-4848dcd2b359-attr-2-comment" class="er entityLabel"/><rect height="22.091796875" width="38.854166666666664" y="72.091796875" x="0" class="er attributeBoxOdd"/><text style="dominant-baseline: middle; font-size: 10.2px;" transform="translate(5,83.1376953125)" y="0" x="0" id="text-entity-workexperiences-2bf83977-1d04-5b67-9a29-4848dcd2b359-attr-3-type" class="er entityLabel">String</text><rect height="22.091796875" width="60.526041666666664" y="72.091796875" x="38.854166666666664" class="er attributeBoxOdd"/><text style="dominant-baseline: middle; font-size: 10.2px;" transform="translate(43.854166666666664,83.1376953125)" y="0" x="0" id="text-entity-workexperiences-2bf83977-1d04-5b67-9a29-4848dcd2b359-attr-3-name" class="er entityLabel">subHeader</text><rect height="22.091796875" width="27.322916666666668" y="72.091796875" x="99.38020833333333" class="er attributeBoxOdd"/><text style="dominant-baseline: middle; font-size: 10.2px;" transform="translate(104.38020833333333,83.1376953125)" y="0" x="0" id="text-entity-workexperiences-2bf83977-1d04-5b67-9a29-4848dcd2b359-attr-3-comment" class="er entityLabel"/><rect height="22.091796875" width="38.854166666666664" y="94.18359375" x="0" class="er attributeBoxEven"/><text style="dominant-baseline: middle; font-size: 10.2px;" transform="translate(5,105.2294921875)" y="0" x="0" id="text-entity-workexperiences-2bf83977-1d04-5b67-9a29-4848dcd2b359-attr-4-type" class="er entityLabel">String</text><rect height="22.091796875" width="60.526041666666664" y="94.18359375" x="38.854166666666664" class="er attributeBoxEven"/><text style="dominant-baseline: middle; font-size: 10.2px;" transform="translate(43.854166666666664,105.2294921875)" y="0" x="0" id="text-entity-workexperiences-2bf83977-1d04-5b67-9a29-4848dcd2b359-attr-4-name" class="er entityLabel">body</text><rect height="22.091796875" width="27.322916666666668" y="94.18359375" x="99.38020833333333" class="er attributeBoxEven"/><text style="dominant-baseline: middle; font-size: 10.2px;" transform="translate(104.38020833333333,105.2294921875)" y="0" x="0" id="text-entity-workexperiences-2bf83977-1d04-5b67-9a29-4848dcd2b359-attr-4-comment" class="er entityLabel"/></g><g transform="translate(20,236.275390625 )" id="entity-tags-6d8c4510-222a-5f9e-b73d-d896901739b8"><rect height="72.091796875" width="100" y="0" x="0" class="er entityBox"/><text style="dominant-baseline: middle; text-anchor: middle; font-size: 12px;" transform="translate(50,12)" y="0" x="0" id="text-entity-tags-6d8c4510-222a-5f9e-b73d-d896901739b8" class="er entityLabel">tags</text><rect height="26" width="37.697916666666664" y="24" x="0" class="er attributeBoxOdd"/><text style="dominant-baseline: middle; font-size: 10.2px;" transform="translate(5,37)" y="0" x="0" id="text-entity-tags-6d8c4510-222a-5f9e-b73d-d896901739b8-attr-1-type" class="er entityLabel">String</text><rect height="26" width="36.135416666666664" y="24" x="37.697916666666664" class="er attributeBoxOdd"/><text style="dominant-baseline: middle; font-size: 10.2px;" transform="translate(42.697916666666664,37)" y="0" x="0" id="text-entity-tags-6d8c4510-222a-5f9e-b73d-d896901739b8-attr-1-name" class="er entityLabel">id</text><rect height="26" width="26.166666666666668" y="24" x="73.83333333333333" class="er attributeBoxOdd"/><text style="dominant-baseline: middle; font-size: 10.2px;" transform="translate(78.83333333333333,37)" y="0" x="0" id="text-entity-tags-6d8c4510-222a-5f9e-b73d-d896901739b8-attr-1-comment" class="er entityLabel">🗝️</text><rect height="22.091796875" width="37.697916666666664" y="50" x="0" class="er attributeBoxEven"/><text style="dominant-baseline: middle; font-size: 10.2px;" transform="translate(5,61.0458984375)" y="0" x="0" id="text-entity-tags-6d8c4510-222a-5f9e-b73d-d896901739b8-attr-2-type" class="er entityLabel">String</text><rect height="22.091796875" width="36.135416666666664" y="50" x="37.697916666666664" class="er attributeBoxEven"/><text style="dominant-baseline: middle; font-size: 10.2px;" transform="translate(42.697916666666664,61.0458984375)" y="0" x="0" id="text-entity-tags-6d8c4510-222a-5f9e-b73d-d896901739b8-attr-2-name" class="er entityLabel">name</text><rect height="22.091796875" width="26.166666666666668" y="50" x="73.83333333333333" class="er attributeBoxEven"/><text style="dominant-baseline: middle; font-size: 10.2px;" transform="translate(78.83333333333333,61.0458984375)" y="0" x="0" id="text-entity-tags-6d8c4510-222a-5f9e-b73d-d896901739b8-attr-2-comment" class="er entityLabel"/></g><g transform="translate(220,236.275390625 )" id="entity-companies-ca3bccc8-7338-5f82-9c8e-17af48bb5a80"><rect height="72.091796875" width="100" y="0" x="0" class="er entityBox"/><text style="dominant-baseline: middle; text-anchor: middle; font-size: 12px;" transform="translate(50,12)" y="0" x="0" id="text-entity-companies-ca3bccc8-7338-5f82-9c8e-17af48bb5a80" class="er entityLabel">companies</text><rect height="26" width="37.697916666666664" y="24" x="0" class="er attributeBoxOdd"/><text style="dominant-baseline: middle; font-size: 10.2px;" transform="translate(5,37)" y="0" x="0" id="text-entity-companies-ca3bccc8-7338-5f82-9c8e-17af48bb5a80-attr-1-type" class="er entityLabel">String</text><rect height="26" width="36.135416666666664" y="24" x="37.697916666666664" class="er attributeBoxOdd"/><text style="dominant-baseline: middle; font-size: 10.2px;" transform="translate(42.697916666666664,37)" y="0" x="0" id="text-entity-companies-ca3bccc8-7338-5f82-9c8e-17af48bb5a80-attr-1-name" class="er entityLabel">id</text><rect height="26" width="26.166666666666668" y="24" x="73.83333333333333" class="er attributeBoxOdd"/><text style="dominant-baseline: middle; font-size: 10.2px;" transform="translate(78.83333333333333,37)" y="0" x="0" id="text-entity-companies-ca3bccc8-7338-5f82-9c8e-17af48bb5a80-attr-1-comment" class="er entityLabel">🗝️</text><rect height="22.091796875" width="37.697916666666664" y="50" x="0" class="er attributeBoxEven"/><text style="dominant-baseline: middle; font-size: 10.2px;" transform="translate(5,61.0458984375)" y="0" x="0" id="text-entity-companies-ca3bccc8-7338-5f82-9c8e-17af48bb5a80-attr-2-type" class="er entityLabel">String</text><rect height="22.091796875" width="36.135416666666664" y="50" x="37.697916666666664" class="er attributeBoxEven"/><text style="dominant-baseline: middle; font-size: 10.2px;" transform="translate(42.697916666666664,61.0458984375)" y="0" x="0" id="text-entity-companies-ca3bccc8-7338-5f82-9c8e-17af48bb5a80-attr-2-name" class="er entityLabel">name</text><rect height="22.091796875" width="26.166666666666668" y="50" x="73.83333333333333" class="er attributeBoxEven"/><text style="dominant-baseline: middle; font-size: 10.2px;" transform="translate(78.83333333333333,61.0458984375)" y="0" x="0" id="text-entity-companies-ca3bccc8-7338-5f82-9c8e-17af48bb5a80-attr-2-comment" class="er entityLabel"/></g><rect height="14" width="21.953125" y="162.929443359375" x="38.609214782714844" class="er relationshipLabelBox"/><text style="text-anchor: middle; dominant-baseline: middle; font-size: 12px;" y="169.929443359375" x="49.585777282714844" id="rel1" class="er relationshipLabel">tags</text><rect height="14" width="47.8125" y="180.08555603027344" x="197.50717163085938" class="er relationshipLabelBox"/><text style="text-anchor: middle; dominant-baseline: middle; font-size: 12px;" y="187.08555603027344" x="221.41342163085938" id="rel2" class="er relationshipLabel">company</text><rect height="14" width="90.296875" y="180.08584594726562" x="73.43866729736328" class="er relationshipLabelBox"/><text style="text-anchor: middle; dominant-baseline: middle; font-size: 12px;" y="187.08584594726562" x="118.58710479736328" id="rel3" class="er relationshipLabel">workExperiences</text><rect height="14" width="90.296875" y="162.9294891357422" x="245.2657470703125" class="er relationshipLabelBox"/><text style="text-anchor: middle; dominant-baseline: middle; font-size: 12px;" y="169.9294891357422" x="290.4141845703125" id="rel4" class="er relationshipLabel">workExperiences</text></svg>